<?xml version="1.0" encoding="utf-8"?>
<!-- Generator: Adobe Illustrator 16.0.0, SVG Export Plug-In . SVG Version: 6.00 Build 0)  -->
<!DOCTYPE svg PUBLIC "-//W3C//DTD SVG 1.1//EN" "http://www.w3.org/Graphics/SVG/1.1/DTD/svg11.dtd">
<svg version="1.1" id="Layer_1" xmlns="http://www.w3.org/2000/svg" xmlns:xlink="http://www.w3.org/1999/xlink" x="0px" y="0px"
	 width="34px" height="93.75px" viewBox="0 0 34 93.75" enable-background="new 0 0 34 93.75" xml:space="preserve">
<g id="Awareness">
	<rect x="3.461" y="0.5" clip-path="url(#SVGID_2_)" fill="#CBCBCB" width="27.562" height="92.625"/>
	
		<rect x="3.5" y="1.25" clip-path="url(#SVGID_2_)" fill="none" stroke="#000000" stroke-width="0.5" stroke-linecap="round" stroke-linejoin="round" stroke-miterlimit="10" width="28" height="92"/>
	<g clip-path="url(#SVGID_2_)">
		<text transform="matrix(1 0 0 1 5.3799 6)"><tspan x="0" y="0" fill="#404040" font-family="'HelveticaNeue-Bold'" font-size="4.5">A</tspan><tspan x="3.001" y="0" fill="#404040" font-family="'HelveticaNeue-Bold'" font-size="4.5">wa</tspan><tspan x="9.248" y="0" fill="#404040" font-family="'HelveticaNeue-Bold'" font-size="4.5">r</tspan><tspan x="10.917" y="0" fill="#404040" font-family="'HelveticaNeue-Bold'" font-size="4.5">eness</tspan></text>
	</g>
	<polygon clip-path="url(#SVGID_2_)" fill="#FFFFFF" points="14.912,55.25 19.49,55.25 19.49,59.815 21.758,59.815 17.201,67.359 
		12.645,59.815 14.912,59.815 	"/>
	
		<polygon clip-path="url(#SVGID_2_)" fill="none" stroke="#000000" stroke-width="0.25" stroke-linecap="round" stroke-linejoin="round" stroke-miterlimit="10" points="
		15.5,55.25 19.5,55.25 19.5,60.25 21.758,60.25 17.201,67.359 12.645,60.25 15.5,60.25 	"/>
	<path clip-path="url(#SVGID_2_)" fill="#FFFFFF" d="M25.729,87.823c4.734-4.734,4.734-12.412,0-17.146
		c-4.735-4.735-12.413-4.735-17.148,0c-4.735,4.734-4.735,12.412,0,17.146C13.316,92.559,20.993,92.559,25.729,87.823"/>
	
		<path clip-path="url(#SVGID_2_)" fill="none" stroke="#000000" stroke-width="0.25" stroke-linecap="round" stroke-linejoin="round" stroke-miterlimit="10" d="
		M25.729,87.823c4.734-4.734,4.734-12.412,0-17.146c-4.735-4.735-12.413-4.735-17.148,0c-4.735,4.734-4.735,12.412,0,17.146
		C13.316,92.559,20.993,92.559,25.729,87.823"/>
	<g clip-path="url(#SVGID_2_)">
		<text transform="matrix(1 0 0 1 6.5498 80.875)"><tspan x="0" y="0" fill="#404040" font-family="'HelveticaNeue-Bold'" font-size="4">Pe</tspan><tspan x="4.964" y="0" fill="#404040" font-family="'HelveticaNeue-Bold'" font-size="4">r</tspan><tspan x="6.452" y="0" fill="#404040" font-family="'HelveticaNeue-Bold'" font-size="4">ception</tspan></text>
	</g>
	<polygon clip-path="url(#SVGID_2_)" fill="#FFFFFF" points="19.49,31.625 14.912,31.625 14.912,37.081 12.645,37.081 
		17.201,44.625 21.758,37.081 19.49,37.081 	"/>
	
		<polygon clip-path="url(#SVGID_2_)" fill="none" stroke="#000000" stroke-width="0.25" stroke-linecap="round" stroke-linejoin="round" stroke-miterlimit="10" points="
		19.5,32.25 15.5,32.25 15.5,37.25 12.645,37.25 17.201,44.625 21.758,37.25 19.5,37.25 	"/>
	<path clip-path="url(#SVGID_2_)" fill="#FFFFFF" d="M25.744,28.699c4.734-4.735,4.734-12.412,0-17.147
		c-4.735-4.735-12.413-4.735-17.148,0c-4.735,4.735-4.735,12.412,0,17.147C13.332,33.434,21.009,33.434,25.744,28.699"/>
	
		<path clip-path="url(#SVGID_2_)" fill="none" stroke="#000000" stroke-width="0.25" stroke-linecap="round" stroke-linejoin="round" stroke-miterlimit="10" d="
		M25.744,28.699c4.734-4.735,4.734-12.412,0-17.147c-4.735-4.735-12.413-4.735-17.148,0c-4.735,4.735-4.735,12.412,0,17.147
		C13.332,33.434,21.009,33.434,25.744,28.699"/>
	<g clip-path="url(#SVGID_2_)">
		<text transform="matrix(1 0 0 1 8.5874 21.7812)" fill="#404040" font-family="'HelveticaNeue-Bold'" font-size="4">Intention</text>
	</g>
	<rect x="5.029" y="44.625" clip-path="url(#SVGID_2_)" fill="#FFFFFF" width="24.25" height="10.625"/>
	
		<rect x="5.5" y="45.25" clip-path="url(#SVGID_2_)" fill="none" stroke="#000000" stroke-width="0.25" stroke-linecap="round" stroke-linejoin="round" stroke-miterlimit="10" width="24" height="10"/>
	<g clip-path="url(#SVGID_2_)">
		<text transform="matrix(1 0 0 1 6.8037 48.9375)"><tspan x="0" y="0" fill="#404040" font-family="'HelveticaNeue-Bold'" font-size="4">Pe</tspan><tspan x="4.964" y="0" fill="#404040" font-family="'HelveticaNeue-Bold'" font-size="4">r</tspan><tspan x="6.452" y="0" fill="#404040" font-family="'HelveticaNeue-Bold'" font-size="4">ceptual </tspan></text>
	</g>
	<g clip-path="url(#SVGID_2_)">
		<text transform="matrix(1 0 0 1 11.8057 53.6875)" fill="#404040" font-family="'HelveticaNeue-Bold'" font-size="4">Logic</text>
	</g>
</g>
</svg>
