<?xml version="1.0" encoding="utf-8"?>
<!-- Generator: Adobe Illustrator 16.0.0, SVG Export Plug-In . SVG Version: 6.00 Build 0)  -->
<!DOCTYPE svg PUBLIC "-//W3C//DTD SVG 1.1//EN" "http://www.w3.org/Graphics/SVG/1.1/DTD/svg11.dtd">
<svg version="1.1" id="Layer_1" xmlns="http://www.w3.org/2000/svg" xmlns:xlink="http://www.w3.org/1999/xlink" x="0px" y="0px"
	 width="133.5px" height="25.25px" viewBox="0 0 133.5 25.25" enable-background="new 0 0 133.5 25.25" xml:space="preserve">
<g id="Envi_Mental">
	<path clip-path="url(#SVGID_2_)" fill="#FFFFFF" d="M124.986,21.198c4.734-4.734,4.734-12.412,0-17.147
		c-4.735-4.735-12.413-4.735-17.147,0c-4.735,4.735-4.735,12.413,0,17.147C112.573,25.934,120.251,25.934,124.986,21.198"/>
	
		<path clip-path="url(#SVGID_2_)" fill="none" stroke="#000000" stroke-width="0.25" stroke-linecap="round" stroke-linejoin="round" stroke-miterlimit="10" d="
		M124.986,21.198c4.734-4.734,4.734-12.412,0-17.147c-4.735-4.735-12.413-4.735-17.147,0c-4.735,4.735-4.735,12.413,0,17.147
		C112.573,25.934,120.251,25.934,124.986,21.198"/>
	<g clip-path="url(#SVGID_2_)">
		<text transform="matrix(1 0 0 1 105.127 14.5)"><tspan x="0" y="0" fill="#404040" font-family="'HelveticaNeue-Bold'" font-size="3.75">Envi</tspan><tspan x="7.571" y="0" fill="#404040" font-family="'HelveticaNeue-Bold'" font-size="3.75">r</tspan><tspan x="8.966" y="0" fill="#404040" font-family="'HelveticaNeue-Bold'" font-size="3.75">onment</tspan></text>
	</g>
	<path clip-path="url(#SVGID_2_)" fill="#FFFFFF" d="M21.236,21.198c4.735-4.734,4.735-12.412,0-17.147
		c-4.735-4.735-12.412-4.735-17.147,0c-4.735,4.735-4.735,12.413,0,17.147C8.824,25.934,16.501,25.934,21.236,21.198"/>
	
		<path clip-path="url(#SVGID_2_)" fill="none" stroke="#000000" stroke-width="0.25" stroke-linecap="round" stroke-linejoin="round" stroke-miterlimit="10" d="
		M21.236,21.198c4.735-4.734,4.735-12.412,0-17.147c-4.735-4.735-12.412-4.735-17.147,0c-4.735,4.735-4.735,12.413,0,17.147
		C8.824,25.934,16.501,25.934,21.236,21.198"/>
	<g clip-path="url(#SVGID_2_)">
		<text transform="matrix(1 0 0 1 5.9741 11.625)" fill="#404040" font-family="'HelveticaNeue-Bold'" font-size="4">Mental </text>
	</g>
	<g clip-path="url(#SVGID_2_)">
		<text transform="matrix(1 0 0 1 6.5684 16.375)" fill="#404040" font-family="'HelveticaNeue-Bold'" font-size="4">Model</text>
	</g>
</g>
</svg>
