<?xml version="1.0" encoding="utf-8"?>
<!-- Generator: Adobe Illustrator 16.0.0, SVG Export Plug-In . SVG Version: 6.00 Build 0)  -->
<!DOCTYPE svg PUBLIC "-//W3C//DTD SVG 1.1//EN" "http://www.w3.org/Graphics/SVG/1.1/DTD/svg11.dtd">
<svg version="1.1" id="Layer_1" xmlns="http://www.w3.org/2000/svg" xmlns:xlink="http://www.w3.org/1999/xlink" x="0px" y="0px"
	 width="127.25px" height="57.25px" viewBox="0 0 127.25 57.25" enable-background="new 0 0 127.25 57.25" xml:space="preserve">
<g id="Labels">
	<g>
		<text transform="matrix(1 0 0 1 98.627 6.875)" fill="#404040" font-family="'HelveticaNeue'" font-size="3.75">Action</text>
	</g>
	<g>
		<text transform="matrix(1 0 0 1 109.8379 28.0625)" fill="#404040" font-family="'HelveticaNeue'" font-size="3.75">Sensory </text>
	</g>
	<g>
		<text transform="matrix(1 0 0 1 112.4043 32.3125)" fill="#404040" font-family="'HelveticaNeue'" font-size="3.75">Input</text>
	</g>
	
		<line clip-path="url(#SVGID_2_)" fill="none" stroke="#000000" stroke-width="0.5" stroke-linejoin="round" stroke-miterlimit="10" stroke-dasharray="2,2" x1="96.181" y1="5.75" x2="88.118" y2="5.75"/>
	<path clip-path="url(#SVGID_2_)" d="M87.854,5.208c0.352,0.351,0.352,0.921,0,1.272c-0.352,0.352-0.921,0.352-1.272,0
		c-0.352-0.351-0.352-0.921,0-1.272C86.934,4.856,87.503,4.856,87.854,5.208"/>
	<path clip-path="url(#SVGID_2_)" fill="none" stroke="#000000" stroke-width="0.5" stroke-miterlimit="10" d="M87.854,5.208
		c0.352,0.351,0.352,0.921,0,1.272c-0.352,0.352-0.921,0.352-1.272,0c-0.352-0.351-0.352-0.921,0-1.272
		C86.934,4.856,87.503,4.856,87.854,5.208"/>
	
		<line clip-path="url(#SVGID_2_)" fill="none" stroke="#000000" stroke-width="0.5" stroke-linejoin="round" stroke-miterlimit="10" stroke-dasharray="2,2" x1="109.287" y1="30.5" x2="95.284" y2="38.428"/>
	<path clip-path="url(#SVGID_2_)" d="M94.741,38.004c0.479,0.133,0.76,0.628,0.627,1.107c-0.133,0.479-0.629,0.76-1.107,0.627
		c-0.479-0.133-0.76-0.629-0.627-1.107C93.767,38.151,94.262,37.871,94.741,38.004"/>
	<path clip-path="url(#SVGID_2_)" fill="none" stroke="#000000" stroke-width="0.5" stroke-miterlimit="10" d="M94.741,38.004
		c0.479,0.133,0.76,0.628,0.627,1.107c-0.133,0.479-0.629,0.76-1.107,0.627c-0.479-0.133-0.76-0.629-0.627-1.107
		C93.767,38.151,94.262,37.871,94.741,38.004"/>
	
		<line clip-path="url(#SVGID_2_)" fill="none" stroke="#000000" stroke-width="0.5" stroke-linejoin="round" stroke-miterlimit="10" stroke-dasharray="2,2" x1="23.6" y1="31.438" x2="36.913" y2="38.479"/>
	<path clip-path="url(#SVGID_2_)" d="M36.848,39.165c-0.146-0.476,0.12-0.979,0.595-1.125c0.475-0.146,0.979,0.12,1.125,0.595
		s-0.12,0.979-0.595,1.125S36.995,39.64,36.848,39.165"/>
	<path clip-path="url(#SVGID_2_)" fill="none" stroke="#000000" stroke-width="0.5" stroke-miterlimit="10" d="M36.848,39.165
		c-0.146-0.476,0.12-0.979,0.595-1.125c0.475-0.146,0.979,0.12,1.125,0.595s-0.12,0.979-0.595,1.125S36.995,39.64,36.848,39.165"/>
	<g clip-path="url(#SVGID_2_)">
		<text transform="matrix(1 0 0 1 21.793 4.9688)" fill="#404040" font-family="'HelveticaNeue'" font-size="3.75">Update </text>
	</g>
	<g clip-path="url(#SVGID_2_)">
		<text transform="matrix(1 0 0 1 22.7305 9.2188)" fill="#404040" font-family="'HelveticaNeue'" font-size="3.75">Model</text>
	</g>
	
		<line clip-path="url(#SVGID_2_)" fill="none" stroke="#000000" stroke-width="0.5" stroke-linejoin="round" stroke-miterlimit="10" stroke-dasharray="2,2" x1="35.734" y1="5.75" x2="43.509" y2="5.75"/>
	<path clip-path="url(#SVGID_2_)" d="M43.772,6.48c-0.352-0.351-0.352-0.921,0-1.272c0.352-0.352,0.921-0.352,1.273,0
		c0.351,0.351,0.351,0.921,0,1.272C44.694,6.832,44.124,6.832,43.772,6.48"/>
	<path clip-path="url(#SVGID_2_)" fill="none" stroke="#000000" stroke-width="0.5" stroke-miterlimit="10" d="M43.772,6.48
		c-0.352-0.351-0.352-0.921,0-1.272c0.352-0.352,0.921-0.352,1.273,0c0.351,0.351,0.351,0.921,0,1.272
		C44.694,6.832,44.124,6.832,43.772,6.48"/>
	<g clip-path="url(#SVGID_2_)">
		<text transform="matrix(1 0 0 1 4.9326 26.375)" fill="#404040" font-family="'HelveticaNeue'" font-size="3.75">Relevant</text>
	</g>
	<g clip-path="url(#SVGID_2_)">
		<text transform="matrix(1 0 0 1 2.8159 30.625)" fill="#404040" font-family="'HelveticaNeue'" font-size="3.75">Knowledge </text>
	</g>
	<g clip-path="url(#SVGID_2_)">
		<text transform="matrix(1 0 0 1 10.9951 18.75)"><tspan x="0" y="0" fill="#404040" font-family="'HelveticaNeue'" font-size="3.75">Di</tspan><tspan x="3.473" y="0" fill="#404040" font-family="'HelveticaNeue'" font-size="3.75">r</tspan><tspan x="4.654" y="0" fill="#404040" font-family="'HelveticaNeue'" font-size="3.75">ective</tspan></text>
	</g>
	<g clip-path="url(#SVGID_2_)">
		<text transform="matrix(1 0 0 1 82.5859 54.9375)" fill="#404040" font-family="'HelveticaNeue'" font-size="3.75">A</text>
	</g>
	<path clip-path="url(#SVGID_2_)" fill="#404040" d="M86.441,53.28h-0.735v1.657h-0.318V53.28h-0.327v-0.281h0.327V52.71
		c0-0.157,0.045-0.276,0.137-0.358c0.091-0.081,0.224-0.121,0.399-0.121c0.029,0,0.064,0.002,0.103,0.007
		c0.039,0.005,0.073,0.013,0.104,0.022v0.277c-0.027-0.01-0.058-0.017-0.09-0.021c-0.033-0.004-0.062-0.005-0.09-0.005
		c-0.078,0-0.138,0.015-0.181,0.045c-0.042,0.029-0.063,0.087-0.063,0.172v0.271h0.735V52.71c0-0.157,0.045-0.276,0.137-0.358
		c0.091-0.081,0.224-0.121,0.399-0.121c0.029,0,0.064,0.002,0.103,0.007c0.039,0.005,0.073,0.013,0.104,0.022v0.277
		c-0.027-0.01-0.058-0.017-0.09-0.021c-0.033-0.004-0.062-0.005-0.09-0.005c-0.078,0-0.138,0.015-0.181,0.045
		c-0.042,0.029-0.063,0.087-0.063,0.172v0.271h0.375v0.281H86.76v1.657h-0.318V53.28z"/>
	<g clip-path="url(#SVGID_2_)">
		<text transform="matrix(1 0 0 1 87.1797 54.9375)"><tspan x="0" y="0" fill="#404040" font-family="'HelveticaNeue'" font-size="3.75">o</tspan><tspan x="2.152" y="0" fill="#404040" font-family="'HelveticaNeue'" font-size="3.75">r</tspan><tspan x="3.334" y="0" fill="#404040" font-family="'HelveticaNeue'" font-size="3.75">dances</tspan></text>
	</g>
	
		<line clip-path="url(#SVGID_2_)" fill="none" stroke="#000000" stroke-width="0.5" stroke-linejoin="round" stroke-miterlimit="10" stroke-dasharray="2,2" x1="65.081" y1="17.75" x2="27.037" y2="17.75"/>
	<path clip-path="url(#SVGID_2_)" d="M65.345,18.324c-0.352-0.351-0.352-0.921,0-1.272c0.352-0.352,0.921-0.352,1.272,0
		c0.352,0.351,0.352,0.921,0,1.272C66.266,18.675,65.696,18.675,65.345,18.324"/>
	<path clip-path="url(#SVGID_2_)" fill="none" stroke="#000000" stroke-width="0.5" stroke-miterlimit="10" d="M65.345,18.324
		c-0.352-0.351-0.352-0.921,0-1.272c0.352-0.352,0.921-0.352,1.272,0c0.352,0.351,0.352,0.921,0,1.272
		C66.266,18.675,65.696,18.675,65.345,18.324"/>
	
		<line clip-path="url(#SVGID_2_)" fill="none" stroke="#000000" stroke-width="0.5" stroke-linejoin="round" stroke-miterlimit="10" stroke-dasharray="2,2" x1="82.295" y1="52" x2="66.958" y2="40.948"/>
	<path clip-path="url(#SVGID_2_)" d="M67.116,40.278c0.08,0.49-0.253,0.953-0.744,1.032c-0.49,0.08-0.953-0.253-1.032-0.744
		c-0.08-0.49,0.253-0.953,0.744-1.032C66.574,39.454,67.037,39.787,67.116,40.278"/>
	<path clip-path="url(#SVGID_2_)" fill="none" stroke="#000000" stroke-width="0.5" stroke-miterlimit="10" d="M67.116,40.278
		c0.08,0.49-0.253,0.953-0.744,1.032c-0.49,0.08-0.953-0.253-1.032-0.744c-0.08-0.49,0.253-0.953,0.744-1.032
		C66.574,39.454,67.037,39.787,67.116,40.278"/>
</g>
</svg>
